# xmcd
# 
# Track frame offsets:
#     150
#     13820
#     27635
#     45954
#     55101
#     72261
#     88574
#     98892
#     116634
#     132995
#     150347
#     160806
#     173304
#     187517
#     199128
#     211427
#     230320
# 
# Disc length: 3404
# 
# Revision: 2
# Processed by: cddbd v1.5.2PL0 Copyright (c) Steve Scherf et al.
# Submitted via: fre:ac v1.0.31
# 
DISCID=d00d4a11
DTITLE=Folk - Native North America (Vol.1): Aboriginal Folk, Rock and Country 1966-1985 Disc. 2
DYEAR=2014
DGENRE=Folk
TTITLE0=Mistashipu
TTITLE1=Old man carver
TTITLE2=Winds of change
TTITLE3=I shouldn't have did what I done
TTITLE4=I didn't know
TTITLE5=I got my music
TTITLE6=Siwash rock
TTITLE7=Birchbark letter
TTITLE8=Anaanaga
TTITLE9=Messenger
TTITLE10=Modern rock
TTITLE11=We got to take you higher
TTITLE12=Utirumavunga
TTITLE13=Ajuinnarasuarsunga
TTITLE14=Hey, hey, hey, brother
TTITLE15=Tshekuan mak tshetutamak
TTITLE16=Peruvian dream (part 2)
EXTD=
EXTT0=
EXTT1=
EXTT2=
EXTT3=
EXTT4=
EXTT5=
EXTT6=
EXTT7=
EXTT8=
EXTT9=
EXTT10=
EXTT11=
EXTT12=
EXTT13=
EXTT14=
EXTT15=
EXTT16=
PLAYORDER=
